Coordinates
version=1
nRows=15
nColumns=19
inDegrees=yes

Units are S.I. units (second, meters, Newtons, ...)
If the header above contains a line with 'inDegrees', this indicates whether rotational values are in degrees (yes) or radians (no).

endheader
time	pelvis_tilt	pelvis_list	pelvis_rotation	pelvis_tx	pelvis_ty	pelvis_tz	hip_flexion_r	hip_adduction_r	hip_rotation_r	knee_angle_r	knee_angle_r_beta	ankle_angle_r	hip_flexion_l	hip_adduction_l	hip_rotation_l	knee_angle_l	knee_angle_l_beta	ankle_angle_l
     15.22666667	     -1.65025190	     -2.85663510	     -0.13624562	      2.15286101	      1.03423091	      1.03569653	     23.30326589	      6.38477990	     -1.95046586	     18.90944368	      0.33003205	      9.58547751	     -9.98224065	     -4.67109117	     -6.12580491	     46.76209715	      0.81615256	    -17.87654922
     15.23333333	     -1.43539031	     -3.48550687	     -0.40840853	      2.15270348	      1.02979964	      1.03613472	     22.84818052	      7.12516341	     -2.27458299	     19.11362065	      0.33359561	      8.47611398	     -8.98909903	     -5.29649454	     -5.68830807	     50.22708229	      0.87662796	    -16.70752014
     15.24000000	     -1.09629297	     -4.18365019	     -0.79500712	      2.15241688	      1.02512812	      1.03664810	     22.44014460	      7.90656674	     -2.80396786	     19.92304171	      0.34772267	      7.46859288	     -8.11549454	     -5.99317243	     -5.45253591	     53.69371847	      0.93713217	    -15.60580493
     15.24666667	     -1.18316775	     -4.82722322	     -1.10279566	      2.15189501	      1.01977610	      1.03704861	     22.68605794	      8.53247654	     -3.58273138	     21.31501815	      0.37201725	      6.60209943	     -6.62616435	     -6.60424251	     -4.97505208	     57.29192937	      0.99993280	    -14.62320240
     15.25333333	     -1.03003501	     -5.57503079	     -1.52881770	      2.15126739	      1.01446139	      1.03755161	     22.73919265	      9.26615566	     -4.32712543	     23.05128888	      0.40232089	      6.00567100	     -5.41392605	     -7.36219969	     -4.75848618	     60.82479447	      1.06159293	    -13.74123245
     15.26000000	     -1.03997133	     -6.22546503	     -2.03295860	      2.15032040	      1.00876081	      1.03811466	     23.11068254	      9.89238473	     -4.94479762	     25.23430156	      0.44042165	      5.83581392	     -3.95446649	     -8.00753749	     -4.55270586	     64.36243064	      1.12333633	    -12.95212348
     15.26666667	     -1.04634549	     -6.90630147	     -2.59326212	      2.14918922	      1.00299872	      1.03872052	     23.48823300	     10.57612367	     -5.35455982	     27.57912356	      0.48134651	      6.05448261	     -2.46792032	     -8.72102509	     -4.42224047	     67.84868599	      1.18418296	    -12.21673756
     15.27333333	     -1.13293211	     -7.50921402	     -3.24112467	      2.14771817	      0.99711570	      1.03940772	     23.97711274	     11.24344339	     -5.45165050	     30.08339565	      0.52505430	      6.71809967	     -0.84001764	     -9.36836160	     -4.33277389	     71.28571809	      1.24417049	    -11.51486493
     15.28000000	     -1.30338403	     -8.10257406	     -3.93711632	      2.14598456	      0.99126195	      1.04018236	     24.49564361	     11.98743806	     -5.26330717	     32.54803514	      0.56807038	      7.75463744	      0.92968683	    -10.03662245	     -4.22978049	     74.65340804	      1.30294777	    -10.82930889
     15.28666667	     -1.55253748	     -8.59610860	     -4.67395126	      2.14393179	      0.98551857	      1.04102891	     25.04508689	     12.71913003	     -4.80427267	     34.96038946	      0.61017390	      9.11892859	      2.84567422	    -10.62783845	     -4.10905350	     77.91873980	      1.35993856	    -10.10245001
     15.29333333	     -1.85456707	     -9.03294684	     -5.43205245	      2.14158399	      0.98004978	      1.04193867	     25.54162600	     13.48489228	     -4.12613590	     37.19569471	      0.64918734	     10.70395573	      4.87698555	    -11.19184760	     -3.94634654	     81.05062462	      1.41460026	     -9.36428353
     15.30000000	     -2.22299426	     -9.40132233	     -6.18707642	      2.13898900	      0.97492677	      1.04286982	     25.98015429	     14.24732363	     -3.31676288	     39.20802086	      0.68430906	     12.41296257	      7.04830169	    -11.70601624	     -3.70488124	     84.03256825	      1.46664499	     -8.59743255
     15.30666667	     -2.60843245	     -9.71262208	     -6.92432220	      2.13626718	      0.97030023	      1.04381674	     26.27853522	     14.99218189	     -2.43886488	     40.94995677	      0.71471157	     14.15180439	      9.28292035	    -12.19553681	     -3.41254645	     86.81000582	      1.51512043	     -7.79546762
     15.31333333	     -2.00205230	    -10.06068567	     -7.39100779	      2.13338979	      0.96760010	      1.04433759	     25.29279170	     15.61783105	     -1.56422742	     42.28861997	      0.73807565	     15.70683199	     10.45213541	    -12.48959718	     -2.93232448	     89.18118757	      1.55650535	     -7.20454015
     15.32000000	     -3.39032969	    -10.09640390	     -8.20023938	      2.13056101	      0.96278496	      1.04553648	     26.41646485	     16.18836675	     -0.75832897	     43.57708105	      0.76056354	     17.43618967	     13.93774361	    -12.92939260	     -2.53499108	     91.68157627	      1.60014537	     -6.17127648
